<mxfile host="www.draw.io" modified="2020-03-02T01:34:44.392Z" agent="Mozilla/5.0 (Windows NT 10.0; Win64; x64) AppleWebKit/537.36 (KHTML, like Gecko) Chrome/80.0.3987.87 Safari/537.36" etag="dbCoqn3o_GRJNEXP5ZSG" version="12.7.9" type="github">
  <diagram id="7BattAahI6qsKdADDFlZ" name="第 1 页">
    <mxGraphModel dx="942" dy="591" grid="1" gridSize="10" guides="1" tooltips="1" connect="1" arrows="1" fold="1" page="1" pageScale="1" pageWidth="827" pageHeight="1169" math="0" shadow="0">
      <root>
        <mxCell id="0" />
        <mxCell id="1" parent="0" />
        <mxCell id="FYfP68msud6mT5EFDPJ9-5" value="" style="edgeStyle=orthogonalEdgeStyle;rounded=0;orthogonalLoop=1;jettySize=auto;html=1;dashed=1;startArrow=classic;startFill=1;strokeWidth=4;" edge="1" parent="1">
          <mxGeometry relative="1" as="geometry">
            <mxPoint x="638" y="720.5" as="sourcePoint" />
            <mxPoint x="718" y="720.5" as="targetPoint" />
          </mxGeometry>
        </mxCell>
        <mxCell id="FYfP68msud6mT5EFDPJ9-42" value="" style="rounded=1;whiteSpace=wrap;html=1;strokeWidth=3;shadow=0;comic=0;glass=1;" vertex="1" parent="1">
          <mxGeometry x="340" y="220" width="280" height="230" as="geometry" />
        </mxCell>
        <mxCell id="FYfP68msud6mT5EFDPJ9-43" value="&lt;font style=&quot;font-size: 19px&quot;&gt;APP&lt;/font&gt;" style="rounded=0;whiteSpace=wrap;html=1;fillColor=#b0e3e6;strokeWidth=4;shadow=0;comic=0;glass=1;strokeColor=#0e8088;" vertex="1" parent="1">
          <mxGeometry x="340" y="220" width="280" height="50" as="geometry" />
        </mxCell>
        <mxCell id="FYfP68msud6mT5EFDPJ9-44" style="edgeStyle=orthogonalEdgeStyle;rounded=0;orthogonalLoop=1;jettySize=auto;html=1;exitX=0.5;exitY=1;exitDx=0;exitDy=0;startArrow=classic;startFill=1;strokeWidth=4;fillColor=#dae8fc;strokeColor=#6c8ebf;entryX=0.374;entryY=-0.012;entryDx=0;entryDy=0;entryPerimeter=0;" edge="1" parent="1" source="FYfP68msud6mT5EFDPJ9-45" target="FYfP68msud6mT5EFDPJ9-46">
          <mxGeometry relative="1" as="geometry">
            <mxPoint x="180" y="640" as="targetPoint" />
          </mxGeometry>
        </mxCell>
        <mxCell id="FYfP68msud6mT5EFDPJ9-45" value="音视频数据流" style="rounded=1;whiteSpace=wrap;html=1;fillColor=#dae8fc;strokeColor=#6c8ebf;strokeWidth=3;shadow=0;comic=0;glass=1;" vertex="1" parent="1">
          <mxGeometry x="340" y="270" width="70" height="180" as="geometry" />
        </mxCell>
        <mxCell id="FYfP68msud6mT5EFDPJ9-46" value="&lt;font style=&quot;font-size: 19px&quot;&gt;FREESWITCH&lt;/font&gt;" style="rounded=0;whiteSpace=wrap;html=1;fillColor=#dae8fc;strokeColor=#6c8ebf;" vertex="1" parent="1">
          <mxGeometry x="202" y="708" width="230" height="80" as="geometry" />
        </mxCell>
        <mxCell id="FYfP68msud6mT5EFDPJ9-47" style="edgeStyle=orthogonalEdgeStyle;rounded=0;orthogonalLoop=1;jettySize=auto;html=1;startArrow=classic;startFill=1;strokeWidth=4;exitX=0.5;exitY=1;exitDx=0;exitDy=0;" edge="1" parent="1" source="FYfP68msud6mT5EFDPJ9-48">
          <mxGeometry relative="1" as="geometry">
            <Array as="points">
              <mxPoint x="442" y="630" />
              <mxPoint x="360" y="630" />
            </Array>
            <mxPoint x="442" y="460" as="sourcePoint" />
            <mxPoint x="360" y="710" as="targetPoint" />
          </mxGeometry>
        </mxCell>
        <mxCell id="FYfP68msud6mT5EFDPJ9-48" value="内置音视频通话控制数据流：&lt;br&gt;发起音视频通话" style="rounded=1;whiteSpace=wrap;html=1;fillColor=#f5f5f5;strokeColor=#666666;strokeWidth=1;fontColor=#333333;shadow=0;comic=0;glass=1;" vertex="1" parent="1">
          <mxGeometry x="408" y="270" width="68" height="180" as="geometry" />
        </mxCell>
        <mxCell id="FYfP68msud6mT5EFDPJ9-49" value="&lt;font style=&quot;font-size: 19px&quot;&gt;UFO&lt;/font&gt;" style="rounded=0;whiteSpace=wrap;html=1;" vertex="1" parent="1">
          <mxGeometry x="570" y="710" width="190" height="80" as="geometry" />
        </mxCell>
        <mxCell id="FYfP68msud6mT5EFDPJ9-51" style="edgeStyle=orthogonalEdgeStyle;rounded=0;orthogonalLoop=1;jettySize=auto;html=1;exitX=0.5;exitY=1;exitDx=0;exitDy=0;entryX=0.25;entryY=0;entryDx=0;entryDy=0;startArrow=classic;startFill=1;fillColor=#fff2cc;strokeColor=#d6b656;strokeWidth=4;" edge="1" parent="1" source="FYfP68msud6mT5EFDPJ9-95" target="FYfP68msud6mT5EFDPJ9-58">
          <mxGeometry relative="1" as="geometry">
            <Array as="points">
              <mxPoint x="585" y="500" />
              <mxPoint x="815" y="500" />
            </Array>
            <mxPoint x="355" y="338" as="sourcePoint" />
          </mxGeometry>
        </mxCell>
        <mxCell id="FYfP68msud6mT5EFDPJ9-58" value="&lt;font style=&quot;font-size: 19px&quot;&gt;OPENFIRE&lt;/font&gt;" style="rounded=0;whiteSpace=wrap;html=1;fillColor=#fff2cc;strokeColor=#d6b656;" vertex="1" parent="1">
          <mxGeometry x="760" y="710" width="220" height="80" as="geometry" />
        </mxCell>
        <mxCell id="FYfP68msud6mT5EFDPJ9-87" value="" style="shape=flexArrow;endArrow=classic;startArrow=classic;html=1;strokeWidth=4;exitX=1;exitY=0.5;exitDx=0;exitDy=0;fillColor=#e1d5e7;strokeColor=#9673a6;dashed=1;entryX=0;entryY=0.5;entryDx=0;entryDy=0;" edge="1" parent="1" source="FYfP68msud6mT5EFDPJ9-46" target="FYfP68msud6mT5EFDPJ9-49">
          <mxGeometry width="50" height="50" relative="1" as="geometry">
            <mxPoint x="380" y="800" as="sourcePoint" />
            <mxPoint x="430" y="750" as="targetPoint" />
          </mxGeometry>
        </mxCell>
        <mxCell id="FYfP68msud6mT5EFDPJ9-88" value="" style="edgeStyle=orthogonalEdgeStyle;rounded=0;orthogonalLoop=1;jettySize=auto;html=1;dashed=1;startArrow=classic;startFill=1;strokeWidth=4;" edge="1" parent="1">
          <mxGeometry relative="1" as="geometry">
            <mxPoint x="720" y="749.5" as="sourcePoint" />
            <mxPoint x="800" y="749.5" as="targetPoint" />
          </mxGeometry>
        </mxCell>
        <mxCell id="FYfP68msud6mT5EFDPJ9-89" value="&lt;font style=&quot;font-size: 22px&quot;&gt;插件&lt;/font&gt;" style="text;html=1;strokeColor=none;fillColor=none;align=center;verticalAlign=middle;whiteSpace=wrap;rounded=0;strokeWidth=5;" vertex="1" parent="1">
          <mxGeometry x="741" y="737" width="40" height="20" as="geometry" />
        </mxCell>
        <mxCell id="FYfP68msud6mT5EFDPJ9-90" value="&lt;span style=&quot;font-size: 22px&quot;&gt;event socket&lt;/span&gt;" style="text;html=1;strokeColor=none;fillColor=none;align=center;verticalAlign=middle;whiteSpace=wrap;rounded=0;strokeWidth=5;" vertex="1" parent="1">
          <mxGeometry x="477" y="694" width="40" height="43" as="geometry" />
        </mxCell>
        <mxCell id="FYfP68msud6mT5EFDPJ9-95" value="内置即时消数据流：即时消息、文字、图片、短视频、文件" style="rounded=1;whiteSpace=wrap;html=1;fillColor=#fff2cc;strokeColor=#d6b656;strokeWidth=3;shadow=0;comic=0;glass=1;" vertex="1" parent="1">
          <mxGeometry x="550" y="270" width="70" height="180" as="geometry" />
        </mxCell>
        <mxCell id="FYfP68msud6mT5EFDPJ9-96" value="REST API控制数据流：配置管理、调度接口" style="rounded=1;whiteSpace=wrap;html=1;fillColor=#e1d5e7;strokeColor=#9673a6;strokeWidth=3;shadow=0;comic=0;glass=1;" vertex="1" parent="1">
          <mxGeometry x="477" y="270" width="73" height="181" as="geometry" />
        </mxCell>
        <mxCell id="FYfP68msud6mT5EFDPJ9-101" style="edgeStyle=orthogonalEdgeStyle;rounded=0;orthogonalLoop=1;jettySize=auto;html=1;exitX=0.5;exitY=1;exitDx=0;exitDy=0;startArrow=classic;startFill=1;strokeWidth=4;strokeColor=#CC00CC;" edge="1" parent="1" source="FYfP68msud6mT5EFDPJ9-96">
          <mxGeometry relative="1" as="geometry">
            <Array as="points">
              <mxPoint x="514" y="519" />
              <mxPoint x="610" y="519" />
            </Array>
            <mxPoint x="280" y="339" as="sourcePoint" />
            <mxPoint x="610" y="709" as="targetPoint" />
          </mxGeometry>
        </mxCell>
      </root>
    </mxGraphModel>
  </diagram>
</mxfile>
